HIERARCHY
ROOT Hips
{
	OFFSET	0.00	0.00	0.00
	CHANNELS 6 Xposition Yposition Zposition Zrotation Xrotation Yrotation
	JOINT Spine
	{
		OFFSET	 0.00	0.01	 0.00
		CHANNELS 3 Zrotation Xrotation Yrotation
		JOINT Spine1
		{
			OFFSET	 0.00	 2.45913012437421	 0.00
			CHANNELS 3 Zrotation Xrotation Yrotation
            JOINT Neck
            {
                OFFSET	 0.00	 2.48462964506057	 0.00
                CHANNELS 3 Zrotation Xrotation Yrotation
                JOINT Head
                {
                    OFFSET	 0.00	 0.927524780924562	 0.00
                    CHANNELS 3 Zrotation Xrotation Yrotation
                    End Site 
                    {
                        OFFSET	 0.00	 1.14999962169752	 0.00
                    }
                }
            }
			JOINT LeftShoulder
			{
				OFFSET	 0.00	 2.48462964506057	 0.00
				CHANNELS 3 Zrotation Xrotation Yrotation
				JOINT LeftUpArm
				{
					OFFSET	 0.00	 1.24881979654096	 0.00
					CHANNELS 3 Zrotation Xrotation Yrotation
					JOINT LeftForeArm
					{
						OFFSET	 0.00	2.59758046908119	 0.00
						CHANNELS 3 Zrotation Xrotation Yrotation
						JOINT LeftHand
						{
							OFFSET	 0.00	2.45542024364365	 0.00
							CHANNELS 3 Zrotation Xrotation Yrotation
							JOINT LeftHandThumb 
							{
								OFFSET	 0.00	0.00	 0.00
								CHANNELS 3 Zrotation Xrotation Yrotation
								End Site
								{
									OFFSET	 0.00	0.00	1.00000003353624
								}
							}
							JOINT L_Wrist_End 
							{
								OFFSET	 0.00	0.99999967115358	 0.00
								CHANNELS 3 Zrotation Xrotation Yrotation
								End Site 
								{
									OFFSET	 0.00	 0.00	 0.00
								}
							}
						}
					}
				}
			}
			JOINT RightShoulder
			{
				OFFSET	 0.00	 2.48462964506057	 0.00
				CHANNELS 3 Zrotation Xrotation Yrotation
				JOINT RightUpArm
				{
					OFFSET	 0.00	 1.24881979654096	 0.00
					CHANNELS 3 Zrotation Xrotation Yrotation
					JOINT RightForeArm
					{
						OFFSET	 0.00	2.59758046908119	 0.00
						CHANNELS 3 Zrotation Xrotation Yrotation
						JOINT RightHand
						{
							OFFSET	 0.00	2.45542024364365	 0.00
							CHANNELS 3 Zrotation Xrotation Yrotation
							JOINT RightHandThumb 
							{
								OFFSET	 0.00	0.00	 0.00
								CHANNELS 3 Zrotation Xrotation Yrotation
								End Site
								{
									OFFSET	 0.00	0.00	1.00000003353624
								}
							}
							JOINT R_Wrist_End 
							{
								OFFSET	 0.00	0.99999967115358	 0.00
								CHANNELS 3 Zrotation Xrotation Yrotation
								End Site 
								{
									OFFSET	 0.00	 0.00	 0.00
								}
							}
						}
					}
				}
			}
		}
	}
	JOINT LeftUpLeg
	{
		OFFSET	 1.2719394002717	 0.00	 0.00
		CHANNELS 3 Zrotation Xrotation Yrotation
		JOINT LeftLowLeg
		{
			OFFSET	 0.00	-4.3429100912261	 0.00
			CHANNELS 3 Zrotation Xrotation Yrotation
			JOINT LeftFoot
			{
				OFFSET	 0.00	-4.48767017425826	 0.00
				CHANNELS 3 Zrotation Xrotation Yrotation
				JOINT LeftToeBase
                {
                    OFFSET	 0.00	0.00	 1.51507020887566
                    CHANNELS 3 Zrotation Xrotation Yrotation
                    End Site 
                    {
                        OFFSET	 0.00	0.00	 0.75000010571191
                    }
                }
			}
		}
	}
	JOINT RightUpLeg
	{
		OFFSET	 -1.2719393604653	 0.00	 0.00
		CHANNELS 3 Zrotation Xrotation Yrotation
		JOINT RightLowLeg
		{
			OFFSET	 0.00	-4.3429100912261	 0.00
			CHANNELS 3 Zrotation Xrotation Yrotation
			JOINT RightFoot
			{
				OFFSET	 0.00	-4.48767017425826	 0.00
				CHANNELS 3 Zrotation Xrotation Yrotation
				JOINT RightToeBase
                {
                    OFFSET	 0.00	0.00	 1.51507020887566
                    CHANNELS 3 Zrotation Xrotation Yrotation
                    End Site 
                    {
                        OFFSET	 0.00	0.00	 0.749999965609858
                    }
                }   
			}
		}
	}
}
MOTION 
Frames:	17 
Frame Time: 0.02 
  -0.7555729675292969 2.2458900451660155 7.025850219726562 -15.4082 68.1805 11.4045 2.00325 2.17703 7.81794 23.0296 48.1402 -16.7863 -10.5167 -14.6865 20.4208 -31.5815 -65.374 -44.273 -119.8759 16.41 3.59286 -5.64644 40.2636 25.5984 0.0 66.2302 0.0 29.0162 11.0358 -0.630072 0.0 0.0 0.0 0.0 0.0 0.0 109.0638 9.54117 -4.72009 16.583 54.657 -2.75701 0.0 59.4624 0.0 -21.3186 -1.367 -9.22572 0.0 0.0 0.0 0.0 0.0 0.0 6.26072 -46.6824 24.831 0.0 61.4499 0.0 -14.5823 22.32124 -14.5605 0.0 -29.3074 0.0 16.3963 -48.2386 -2.81922 0.0 73.2257 0.0 24.0446 20.09787 16.87 0.0 -34.8957 0.0 
  -0.7550969696044922 2.2341600036621094 7.031389770507812 -15.5826 68.6575 11.5757 1.90737 2.57272 7.79619 23.0866 48.0817 -16.7019 -10.6856 -15.1881 20.3678 -31.776 -65.3622 -44.446 -118.8328 16.6488 2.94681 -8.05451 40.0175 25.0568 0.0 63.5734 0.0 29.171 10.8434 -1.22559 0.0 0.0 0.0 0.0 0.0 0.0 109.2963 9.52226 -4.53286 17.1006 54.5073 -3.51743 0.0 56.4477 0.0 -23.8684 -1.62477 -12.5757 0.0 0.0 0.0 0.0 0.0 0.0 6.24927 -47.0594 24.7831 0.0 61.4742 0.0 -15.2706 22.06953 -14.4305 0.0 -29.9926 0.0 16.4071 -48.5656 -2.99466 0.0 73.2543 0.0 23.5219 19.49607 16.0392 0.0 -35.2431 0.0 
  -0.756365966796875 2.2214300537109377 7.03843017578125 -15.9404 69.2775 12.0063 1.85001 2.74725 7.78084 23.1841 48.1409 -16.7178 -10.9379 -15.7344 20.3765 -31.62 -65.3833 -44.5543 -118.9206 16.7088 2.60019 -8.58413 39.966 24.2526 0.0 61.3701 0.0 29.1605 10.0441 -2.44194 0.0 0.0 0.0 0.0 0.0 0.0 109.2102 9.60754 -4.16868 18.0056 54.2732 -4.15589 0.0 53.9184 0.0 -24.3645 -2.3329 -13.8671 0.0 0.0 0.0 0.0 0.0 0.0 6.23477 -47.6238 24.696 0.0 61.4853 0.0 -15.3235 22.07911 -14.6575 0.0 -30.4121 0.0 16.3808 -48.987 -3.32793 0.0 73.136 0.0 22.8586 19.119709 14.9354 0.0 -35.494102 0.0 
  -0.7558529663085938 2.2094900512695315 7.045159912109375 -16.1842 69.8492 12.3388 2.04912 2.98989 8.05285 22.7517 48.209 -16.8429 -10.2554 -16.1348 20.6163 -32.1044 -65.1937 -44.7769 -118.9554 16.6638 1.70732 -9.20663 39.9387 24.2685 0.0 59.3786 0.0 29.0689 9.25556 -3.54058 0.0 0.0 0.0 0.0 0.0 0.0 109.4989 9.82687 -5.37573 16.661 54.2915 -2.18946 0.0 51.8572 0.0 -23.9701 -3.09637 -14.3543 0.0 0.0 0.0 0.0 0.0 0.0 6.1399 -48.1386 24.6389 0.0 61.4199 0.0 -14.9358 22.31879 -14.7112 0.0 -30.2104 0.0 16.2519 -49.3681 -3.74996 0.0 72.943 0.0 22.1073 19.182251 13.9094 0.0 -35.8166 0.0 
  -0.7559120178222656 2.1971200561523436 7.052420043945313 -16.5145 70.4299 12.8361 2.06044 3.26986 8.02194 22.6802 48.0603 -16.7934 -10.4992 -16.0213 20.5373 -32.604 -65.6672 -45.3726 -118.7316 16.8922 1.35263 -10.2811 39.6738 23.7296 0.0 57.5658 0.0 28.9318 8.29993 -4.82887 0.0 0.0 0.0 0.0 0.0 0.0 109.8695 9.65803 -5.70361 16.124 54.4735 -2.14682 0.0 49.5945 0.0 -23.9447 -2.88051 -15.0987 0.0 0.0 0.0 0.0 0.0 0.0 5.97808 -48.699 24.4897 0.0 61.304 0.0 -14.3616 22.763111 -14.4497 0.0 -29.973 0.0 16.0321 -49.7822 -4.35685 0.0 72.7515 0.0 20.6541 19.3112 13.4362 0.0 -36.0661 0.0 
  -0.7571900177001953 2.1873399353027345 7.059979858398438 -17.1254 71.241 13.5284 2.00931 3.31871 7.96325 22.7167 47.9712 -16.7402 -10.5876 -16.1873 20.4395 -32.6685 -65.5554 -45.4159 -118.6729 17.0257 1.65049 -10.5618 39.6298 22.3118 0.0 56.0528 0.0 28.7645 7.49377 -5.85209 0.0 0.0 0.0 0.0 0.0 0.0 109.79 9.51533 -5.24771 17.1763 54.5213 -3.32588 0.0 47.8472 0.0 -23.0511 -3.76036 -15.4355 0.0 0.0 0.0 0.0 0.0 0.0 5.98037 -49.4964 24.577 0.0 61.1918 0.0 -13.6933 23.270481 -14.1599 0.0 -29.712 0.0 16.0176 -50.4679 -4.71238 0.0 72.5912 0.0 18.6468 19.34257 13.564 0.0 -34.6556 0.0 
  -0.7577980041503907 2.1773399353027343 7.0675897216796875 -17.6311 71.7688 14.061 2.2282 3.6457 8.18449 22.2762 47.8888 -16.7223 -10.265 -15.9568 20.5035 -33.4786 -65.8576 -45.9965 -118.1391 17.1057 0.776737 -12.0749 39.4173 22.4318 0.0 54.7021 0.0 28.6435 6.61522 -7.16535 0.0 0.0 0.0 0.0 0.0 0.0 110.4041 9.43929 -6.30101 15.4755 54.943 -2.18199 0.0 46.1909 0.0 -22.6244 -3.91723 -16.5498 0.0 0.0 0.0 0.0 0.0 0.0 6.03511 -49.9769 24.8264 0.0 61.1223 0.0 -12.5694 23.512241 -14.0452 0.0 -29.6549 0.0 16.0252 -50.8931 -4.98158 0.0 72.5138 0.0 17.1333 19.4015 13.5901 0.0 -33.064102 0.0 
  -0.760647964477539 2.167760009765625 7.074769897460937 -18.0577 72.2865 14.4934 2.3669 4.01749 8.42278 21.7754 47.7409 -16.6586 -9.68364 -15.5469 20.6139 -34.7088 -66.2207 -46.717 -118.4002 16.9971 1.3941 -11.308 39.6467 21.0061 0.0 53.6991 0.0 28.0992 5.25175 -8.53182 0.0 0.0 0.0 0.0 0.0 0.0 110.1517 9.54924 -5.8516 17.2604 54.8011 -3.53531 0.0 44.6428 0.0 -22.3399 -3.6704 -17.7059 0.0 0.0 0.0 0.0 0.0 0.0 6.10321 -50.4222 25.1404 0.0 61.0696 0.0 -10.9058 23.55708 -14.1127 0.0 -29.5666 0.0 16.1448 -51.2745 -4.88682 0.0 72.4168 0.0 16.8206 19.38924 13.5863 0.0 -31.1504 0.0 
  -0.7612120056152344 2.159199981689453 7.082269897460938 -18.6061 73.0692 15.0781 2.46818 4.13669 8.59673 21.3658 47.6157 -16.6505 -9.29057 -15.3047 20.7027 -35.4331 -66.422 -47.1591 -117.9425 17.037 1.26773 -12.0001 39.5423 20.3268 0.0 53.0223 0.0 27.4463 3.90147 -9.75332 0.0 0.0 0.0 0.0 0.0 0.0 110.2258 9.54688 -5.04737 19.0111 54.6952 -5.31804 0.0 43.3443 0.0 -22.0798 -3.91961 -18.8085 0.0 0.0 0.0 0.0 0.0 0.0 6.0518 -51.09 25.4296 0.0 60.9293 0.0 -9.47409 23.561539 -13.9649 0.0 -29.2627 0.0 16.2169 -51.9846 -4.68049 0.0 72.4237 0.0 16.9617 19.38217 13.6617 0.0 -29.1706 0.0 
  -0.7617030334472656 2.1504499816894533 7.090919799804688 -19.0914 73.6804 15.6122 2.7849 4.38743 8.97924 20.6393 47.6024 -16.7435 -8.41823 -15.011 20.9706 -36.5222 -66.6502 -47.7613 -117.755 16.9242 1.39968 -11.7369 39.7468 19.5634 0.0 52.4734 0.0 26.6243 2.43522 -10.9676 0.0 0.0 0.0 0.0 0.0 0.0 110.091 9.68028 -4.44297 21.0937 54.4667 -6.44905 0.0 42.2929 0.0 -21.6739 -3.95132 -19.1428 0.0 0.0 0.0 0.0 0.0 0.0 5.97447 -51.564 25.6939 0.0 60.7839 0.0 -8.14652 23.51708 -13.7862 0.0 -29.1367 0.0 16.1008 -52.4856 -4.74819 0.0 72.3976 0.0 17.3867 19.43223 13.8501 0.0 -27.7499 0.0 
  -0.7620449829101562 2.1428199768066407 7.099340209960937 -19.4932 74.3211 16.0108 2.87725 4.65477 9.22187 20.1957 47.5272 -16.7241 -7.92675 -14.7969 21.1048 -37.2242 -66.8175 -48.2331 -118.9038 16.6017 3.57711 -8.33613 40.598 16.6916 0.0 52.0838 0.0 25.7787 0.75602 -12.6614 0.0 0.0 0.0 0.0 0.0 0.0 110.1893 9.61785 -4.26288 22.005 54.48 -6.93856 0.0 41.5459 0.0 -21.2029 -4.26873 -18.8039 0.0 0.0 0.0 0.0 0.0 0.0 5.89533 -52.0125 26.0059 0.0 60.582 0.0 -6.64185 23.34843 -13.6803 0.0 -28.6049 0.0 16.0571 -53.0228 -4.64059 0.0 72.3954 0.0 18.2505 19.78512 14.0453 0.0 -27.1517 0.0 
  -0.7606099700927734 2.136320037841797 7.107830200195313 -20.1641 74.9677 16.6398 3.21487 4.93147 9.58676 19.4564 47.434 -16.7308 -7.3409 -14.38 21.2897 -38.1939 -67.1574 -48.9545 -116.9707 16.9388 0.962215 -12.6764 39.7766 19.0896 0.0 51.5695 0.0 25.1605 -0.123779 -13.2989 0.0 0.0 0.0 0.0 0.0 0.0 111.2553 9.381 -5.65165 19.6014 55.2223 -5.24938 0.0 41.0535 0.0 -20.5673 -5.03779 -17.0641 0.0 0.0 0.0 0.0 0.0 0.0 5.86619 -52.5004 26.3101 0.0 60.4085 0.0 -5.16251 23.164421 -13.5185 0.0 -28.0069 0.0 16.0141 -53.5477 -4.65979 0.0 72.3175 0.0 18.3021 19.73024 14.3413 0.0 -26.1208 0.0 
  -0.7611380004882813 2.12656005859375 7.116719970703125 -20.5784 75.517 17.0318 3.20238 5.2654 9.70203 19.1985 47.3082 -16.7182 -7.2141 -13.9579 21.3712 -38.7912 -67.5265 -49.4747 -117.6847 16.7669 2.61128 -10.3773 40.3433 17.1758 0.0 51.2456 0.0 24.5623 -1.6855 -15.543 0.0 0.0 0.0 0.0 0.0 0.0 110.3808 9.5631 -3.93526 23.7933 54.3189 -8.56105 0.0 40.9049 0.0 -20.458 -5.20193 -15.6581 0.0 0.0 0.0 0.0 0.0 0.0 5.75549 -52.8653 26.553 0.0 60.2202 0.0 -3.71882 22.981739 -13.3825 0.0 -27.18 0.0 15.8922 -53.9351 -4.79347 0.0 72.2276 0.0 18.471 19.75309 14.5599 0.0 -25.725399 0.0 
  -0.7626830291748047 2.1202699279785158 7.124600219726562 -21.4239 76.2423 17.7761 3.22615 5.46573 9.89896 18.8131 47.1235 -16.5933 -7.09969 -13.4106 21.5042 -39.4648 -68.0426 -50.1551 -115.693 17.0593 -0.644255 -15.5989 39.3234 20.5042 0.0 50.7882 0.0 23.9356 -2.3668 -15.8963 0.0 0.0 0.0 0.0 0.0 0.0 109.9781 9.59191 -3.4724 25.2891 54.0035 -10.1164 0.0 41.1812 0.0 -20.4403 -5.61991 -16.0057 0.0 0.0 0.0 0.0 0.0 0.0 5.77214 -53.4664 26.8067 0.0 60.0468 0.0 -2.40181 22.875141 -13.2283 0.0 -26.2183 0.0 15.9557 -54.46 -4.82814 0.0 72.0755 0.0 18.4318 19.66349 14.7124 0.0 -25.6831 0.0 
  -0.7641290283203125 2.1111000061035154 7.1322900390625 -22.2025 76.8909 18.5077 3.1289 5.72858 9.91201 18.6424 46.8307 -16.4971 -7.14725 -12.7635 21.5073 -40.2611 -68.5387 -50.8826 -116.8243 16.9257 1.70307 -12.4503 39.9287 18.058 0.0 50.6096 0.0 23.203 -3.64084 -17.4211 0.0 0.0 0.0 0.0 0.0 0.0 111.2788 9.27568 -6.645 19.1352 55.4817 -6.96249 0.0 41.3472 0.0 -22.9359 -4.68495 -17.9562 0.0 0.0 0.0 0.0 0.0 0.0 5.70661 -53.9945 26.9328 0.0 59.9049 0.0 -1.18259 22.72287 -13.1108 0.0 -25.1082 0.0 15.9065 -54.9453 -5.06956 0.0 72.0236 0.0 17.9697 19.44315 14.7617 0.0 -25.6786 0.0 
  -0.7671160125732421 2.1023899841308595 7.140700073242187 -23.4177 77.4841 19.558 3.01598 5.96023 9.90363 18.6167 46.6479 -16.3939 -7.49758 -12.1226 21.5512 -40.6288 -69.1106 -51.3915 -118.013504 16.7408 3.08759 -10.0264 40.1754 16.6565 0.0 50.6665 0.0 23.6522 -3.67888 -18.359 0.0 0.0 0.0 0.0 0.0 0.0 111.609695 9.02724 -6.73357 18.2159 55.9484 -8.56113 0.0 41.537 0.0 -26.5018 -3.62123 -18.5409 0.0 0.0 0.0 0.0 0.0 0.0 5.88541 -54.5039 27.1682 0.0 59.8311 0.0 -0.241843 22.53389 -13.0527 0.0 -23.90128 0.0 16.1462 -55.3358 -5.10517 0.0 71.8673 0.0 17.4937 19.27678 14.7486 0.0 -25.5765 0.0 
  -0.7664720153808594 2.090850067138672 7.148660278320312 -24.5694 78.0378 20.7143 3.16591 6.11301 10.0162 18.297 46.6047 -16.4799 -7.12348 -11.3887 21.6761 -41.5974 -69.5478 -52.0272 -116.1532 17.1673 0.417898 -14.4481 38.9952 19.327 0.0 50.6348 0.0 24.4305 -3.04068 -18.3081 0.0 0.0 0.0 0.0 0.0 0.0 111.3629 8.88157 -5.68845 19.9288 55.942 -11.1124 0.0 42.0326 0.0 -28.0554 -3.75933 -19.4004 0.0 0.0 0.0 0.0 0.0 0.0 5.73461 -54.9936 27.0103 0.0 59.7134 0.0 0.60177 22.34523 -12.9631 0.0 -23.163471 0.0 15.9858 -55.7049 -5.62043 0.0 71.7895 0.0 16.7087 18.910511 14.8872 0.0 -25.1776 0.0 
